<mxfile host="app.diagrams.net" agent="Mozilla/5.0 (Windows NT 10.0; Win64; x64) AppleWebKit/537.36 (KHTML, like Gecko) Chrome/128.0.6613.644 YaBrowser/24.10.4.644 (beta) Yowser/2.5 Safari/537.36" version="24.9.3">
  <diagram name="Страница — 1" id="X3PFfzv-hzdEvCV2bbi5">
    <mxGraphModel dx="1621" dy="703" grid="1" gridSize="10" guides="1" tooltips="1" connect="1" arrows="1" fold="1" page="1" pageScale="1" pageWidth="827" pageHeight="1169" math="0" shadow="0">
      <root>
        <mxCell id="0" />
        <mxCell id="1" parent="0" />
        <mxCell id="qL1H7-jq_lbmnIrltfWG-14" style="edgeStyle=orthogonalEdgeStyle;rounded=0;orthogonalLoop=1;jettySize=auto;html=1;entryX=0.5;entryY=0;entryDx=0;entryDy=0;" edge="1" parent="1" source="qL1H7-jq_lbmnIrltfWG-1" target="qL1H7-jq_lbmnIrltfWG-2">
          <mxGeometry relative="1" as="geometry" />
        </mxCell>
        <mxCell id="qL1H7-jq_lbmnIrltfWG-1" value="Store" style="rounded=1;whiteSpace=wrap;html=1;" vertex="1" parent="1">
          <mxGeometry x="340" y="50" width="120" height="60" as="geometry" />
        </mxCell>
        <mxCell id="qL1H7-jq_lbmnIrltfWG-16" style="edgeStyle=orthogonalEdgeStyle;rounded=0;orthogonalLoop=1;jettySize=auto;html=1;entryX=0.5;entryY=0;entryDx=0;entryDy=0;" edge="1" parent="1" source="qL1H7-jq_lbmnIrltfWG-2" target="qL1H7-jq_lbmnIrltfWG-6">
          <mxGeometry relative="1" as="geometry">
            <mxPoint x="400" y="320" as="targetPoint" />
          </mxGeometry>
        </mxCell>
        <mxCell id="qL1H7-jq_lbmnIrltfWG-2" value="Phones" style="rounded=1;whiteSpace=wrap;html=1;" vertex="1" parent="1">
          <mxGeometry x="340" y="170" width="120" height="60" as="geometry" />
        </mxCell>
        <mxCell id="qL1H7-jq_lbmnIrltfWG-3" value="Brand2" style="rounded=1;whiteSpace=wrap;html=1;" vertex="1" parent="1">
          <mxGeometry x="340" y="330" width="120" height="60" as="geometry" />
        </mxCell>
        <mxCell id="qL1H7-jq_lbmnIrltfWG-4" value="Model1" style="rounded=1;whiteSpace=wrap;html=1;" vertex="1" parent="1">
          <mxGeometry x="260" y="490" width="120" height="60" as="geometry" />
        </mxCell>
        <mxCell id="qL1H7-jq_lbmnIrltfWG-5" value="Brand3" style="rounded=1;whiteSpace=wrap;html=1;" vertex="1" parent="1">
          <mxGeometry x="660" y="330" width="120" height="60" as="geometry" />
        </mxCell>
        <mxCell id="qL1H7-jq_lbmnIrltfWG-6" value="Brand2" style="rounded=1;whiteSpace=wrap;html=1;" vertex="1" parent="1">
          <mxGeometry x="340" y="330" width="120" height="60" as="geometry" />
        </mxCell>
        <mxCell id="qL1H7-jq_lbmnIrltfWG-7" value="Brand1" style="rounded=1;whiteSpace=wrap;html=1;" vertex="1" parent="1">
          <mxGeometry x="20" y="330" width="120" height="60" as="geometry" />
        </mxCell>
        <mxCell id="qL1H7-jq_lbmnIrltfWG-8" value="Model2" style="rounded=1;whiteSpace=wrap;html=1;" vertex="1" parent="1">
          <mxGeometry x="420" y="490" width="120" height="60" as="geometry" />
        </mxCell>
        <mxCell id="qL1H7-jq_lbmnIrltfWG-9" value="Model1" style="rounded=1;whiteSpace=wrap;html=1;" vertex="1" parent="1">
          <mxGeometry x="580" y="490" width="120" height="60" as="geometry" />
        </mxCell>
        <mxCell id="qL1H7-jq_lbmnIrltfWG-10" value="Model2" style="rounded=1;whiteSpace=wrap;html=1;" vertex="1" parent="1">
          <mxGeometry x="740" y="490" width="120" height="60" as="geometry" />
        </mxCell>
        <mxCell id="qL1H7-jq_lbmnIrltfWG-11" value="Model1" style="rounded=1;whiteSpace=wrap;html=1;" vertex="1" parent="1">
          <mxGeometry x="-60" y="490" width="120" height="60" as="geometry" />
        </mxCell>
        <mxCell id="qL1H7-jq_lbmnIrltfWG-12" value="Model2" style="rounded=1;whiteSpace=wrap;html=1;" vertex="1" parent="1">
          <mxGeometry x="100" y="490" width="120" height="60" as="geometry" />
        </mxCell>
        <mxCell id="qL1H7-jq_lbmnIrltfWG-17" value="" style="endArrow=classic;html=1;rounded=0;exitX=0.75;exitY=1;exitDx=0;exitDy=0;entryX=0.5;entryY=0;entryDx=0;entryDy=0;" edge="1" parent="1" source="qL1H7-jq_lbmnIrltfWG-2" target="qL1H7-jq_lbmnIrltfWG-5">
          <mxGeometry width="50" height="50" relative="1" as="geometry">
            <mxPoint x="530" y="390" as="sourcePoint" />
            <mxPoint x="580" y="340" as="targetPoint" />
          </mxGeometry>
        </mxCell>
        <mxCell id="qL1H7-jq_lbmnIrltfWG-18" value="" style="endArrow=classic;html=1;rounded=0;exitX=0.25;exitY=1;exitDx=0;exitDy=0;entryX=0.5;entryY=0;entryDx=0;entryDy=0;" edge="1" parent="1" source="qL1H7-jq_lbmnIrltfWG-2" target="qL1H7-jq_lbmnIrltfWG-7">
          <mxGeometry width="50" height="50" relative="1" as="geometry">
            <mxPoint x="270" y="390" as="sourcePoint" />
            <mxPoint x="320" y="340" as="targetPoint" />
          </mxGeometry>
        </mxCell>
        <mxCell id="qL1H7-jq_lbmnIrltfWG-19" value="" style="endArrow=classic;html=1;rounded=0;exitX=0.308;exitY=1;exitDx=0;exitDy=0;exitPerimeter=0;entryX=0.5;entryY=0;entryDx=0;entryDy=0;" edge="1" parent="1" source="qL1H7-jq_lbmnIrltfWG-7" target="qL1H7-jq_lbmnIrltfWG-11">
          <mxGeometry width="50" height="50" relative="1" as="geometry">
            <mxPoint x="270" y="390" as="sourcePoint" />
            <mxPoint x="320" y="340" as="targetPoint" />
          </mxGeometry>
        </mxCell>
        <mxCell id="qL1H7-jq_lbmnIrltfWG-20" value="" style="endArrow=classic;html=1;rounded=0;entryX=0.5;entryY=0;entryDx=0;entryDy=0;exitX=0.675;exitY=1.05;exitDx=0;exitDy=0;exitPerimeter=0;" edge="1" parent="1" source="qL1H7-jq_lbmnIrltfWG-7" target="qL1H7-jq_lbmnIrltfWG-12">
          <mxGeometry width="50" height="50" relative="1" as="geometry">
            <mxPoint x="100" y="440" as="sourcePoint" />
            <mxPoint x="150" y="390" as="targetPoint" />
          </mxGeometry>
        </mxCell>
        <mxCell id="qL1H7-jq_lbmnIrltfWG-21" value="" style="endArrow=classic;html=1;rounded=0;exitX=0.308;exitY=1;exitDx=0;exitDy=0;exitPerimeter=0;entryX=0.5;entryY=0;entryDx=0;entryDy=0;" edge="1" parent="1">
          <mxGeometry width="50" height="50" relative="1" as="geometry">
            <mxPoint x="377" y="390" as="sourcePoint" />
            <mxPoint x="320" y="490" as="targetPoint" />
          </mxGeometry>
        </mxCell>
        <mxCell id="qL1H7-jq_lbmnIrltfWG-22" value="" style="endArrow=classic;html=1;rounded=0;entryX=0.5;entryY=0;entryDx=0;entryDy=0;exitX=0.675;exitY=1.05;exitDx=0;exitDy=0;exitPerimeter=0;" edge="1" parent="1">
          <mxGeometry width="50" height="50" relative="1" as="geometry">
            <mxPoint x="421" y="393" as="sourcePoint" />
            <mxPoint x="480" y="490" as="targetPoint" />
          </mxGeometry>
        </mxCell>
        <mxCell id="qL1H7-jq_lbmnIrltfWG-23" value="" style="endArrow=classic;html=1;rounded=0;entryX=0.5;entryY=0;entryDx=0;entryDy=0;exitX=0.675;exitY=1.05;exitDx=0;exitDy=0;exitPerimeter=0;" edge="1" parent="1">
          <mxGeometry width="50" height="50" relative="1" as="geometry">
            <mxPoint x="741" y="393" as="sourcePoint" />
            <mxPoint x="800" y="490" as="targetPoint" />
          </mxGeometry>
        </mxCell>
        <mxCell id="qL1H7-jq_lbmnIrltfWG-24" value="" style="endArrow=classic;html=1;rounded=0;exitX=0.308;exitY=1;exitDx=0;exitDy=0;exitPerimeter=0;entryX=0.5;entryY=0;entryDx=0;entryDy=0;" edge="1" parent="1">
          <mxGeometry width="50" height="50" relative="1" as="geometry">
            <mxPoint x="697" y="390" as="sourcePoint" />
            <mxPoint x="640" y="490" as="targetPoint" />
          </mxGeometry>
        </mxCell>
      </root>
    </mxGraphModel>
  </diagram>
</mxfile>
